<mxfile host="app.diagrams.net" modified="2022-06-28T01:36:54.705Z" agent="5.0 (Windows NT 10.0; Win64; x64) AppleWebKit/537.36 (KHTML, like Gecko) Chrome/103.0.5060.53 Safari/537.36 Edg/103.0.1264.37" etag="c9U0aVbeLjz1skZr_hVQ" version="20.0.3" type="github">
  <diagram id="ZnOWvEEnYAApi-jN_m7Z" name="Page-1">
    <mxGraphModel dx="1374" dy="754" grid="1" gridSize="10" guides="1" tooltips="1" connect="1" arrows="1" fold="1" page="1" pageScale="1" pageWidth="827" pageHeight="1169" math="0" shadow="0">
      <root>
        <mxCell id="0" />
        <mxCell id="1" parent="0" />
        <mxCell id="riI21SobK9dvhJOpMaJD-3" value="" style="rounded=1;whiteSpace=wrap;html=1;" vertex="1" parent="1">
          <mxGeometry x="320" y="192" width="140" height="90" as="geometry" />
        </mxCell>
        <mxCell id="riI21SobK9dvhJOpMaJD-1" value="" style="shape=image;verticalLabelPosition=bottom;labelBackgroundColor=default;verticalAlign=top;aspect=fixed;imageAspect=0;image=data:image/jpeg,/9j/4AAQSkZJRgABAQAAYABgAAD/2wBDAAMCAgICAgMCAgIDAwMDBAYEBAQEBAgGBgUGCQgKCgkICQkKDA8MCgsOCwkJDRENDg8QEBEQCgwSExIQEw8QEBD/2wBDAQMDAwQDBAgEBAgQCwkLEBAQEBAQEBAQEBAQEBAQEBAQEBAQEBAQEBAQEBAQEBAQEBAQEBAQEBAQEBAQEBAQEBD/wAARCAAUAFcDAREAAhEBAxEB/8QAGgAAAwEAAwAAAAAAAAAAAAAABQYIBwEDCf/EAC4QAAEEAgEDBAIBAgcAAAAAAAECAwQFBhEHABIhCBMiQRQxIzJRFRczUliX0//EABwBAAICAwEBAAAAAAAAAAAAAAIDAQYEBQcACP/EADMRAAEDAwIEAwYGAwEAAAAAAAECAxEABCEFMQYSQVEiYYEHEzJxkaEUFVKxwfAWU3LR/9oADAMBAAIRAxEAPwD0T5x5OPFXHlnkkCKmdcBsNVsEAqU8+tQSk9g+Skp33K19JI2N9WLhbRUa7qbdq8rkamVK2gDJycSdh5mq9xLr7OgWKn1KHPskEjJONtyBuayXG/SVB5CpY2X85ZxkWR5LaNJlOexYBuNCKx3BtlKQR8d62NJ8eEgfu6XvtFc0d9Vlw9bttMIMCUypUYlRnr9e5qv2fB7eqsJvNWfU64sThXhE9ExjHljsKK8d1mdcF8kHAbvPY19x9YRS7Xybu3jtz614b7Wu1awt1B1r4p7fkkgJ0oHE1p/T+LNL/Mre2LV4kwoNoUULHVUgEJI3yZwQZwQ3T1P8Nah+AublKrdQlJWtIWk9oJBIPkI2iM1QgUFAKSQQRsEffXNCIwavgM5FRHc+ojMKDl6zTI5vZKa3kCypnMQlJhtMN07Fa6+iQ44llUlCPeQEFzatDfgnx1tE26VNjw9AZzvP0rDLpC/i67UjRPVhzDY2tzHd5awKJKrKMUTVq9cyEw35r75e/NaaRALTj7TXtsEKbSkK2RvuKQ02jYA8J3nb7b0IeWeo/vpVK5Lyy0vK+ILGs5Xx6qt8hRH/AD8akTH1Q7mHLAQVxl+x3F5t4fxKUhvvGwvtB8YSWvCsFJgde0f3NPK8pzQjKqbmdnn2j46r/Ubk8SryKntbohFRVKVFLD7CW2UFUY7Rp8jatq+I8/vqUqa90VlAkEDc/wDtQoL5wkK3+VNXpxyDPslxzkekyrOZN1Z43mttjtfbSoUdDiGWWmPaUptlCG1EKWpRGvO9b10FylCVJKRAIBomioggnY11/wCU/qi/5bR/+v4P/r173rH+v7mvcjn6vtTxxliXKeMKsTyTy63m6ZIa/DCMeYrPxCnv7/8ASWr3O7aP3rXZ4/Z6U6ttUciY9Zo0JUPiM1m3EmD41zExd8gciRl29nIsnYqY7r7iUQmkBJS2lKSNaCvv6A+9k27WL5/Ri3Z2R5UBIMwPET1zXDOCOHdO47Rc67r6S88pxSeUqUA2kRCQAR3+kRmSR1rYWfDeRTeM+I7mVf218EmvpXEhxulKvK33HCf7eQk6Gvkveh3bbT7BrXbdOq6wkNst/EvYuRslI+e574T1hgbf4HvndE4deU8t6ORk5DJO6lKPlsMY8S5gFTNjvpWwdyqekcjmVkuSWO3Z1k5LeQUuq/YbAUPA+ioEnX6A+IxL32gagl4J0uGWEYSgJScDvg79hEfPNWew9mWmKYK9Yl+4XlSypQyf0wRt3Mz5DFcemedYwXM147dtHbOrxG3/AA6yU6ruV7Si4C1v9fH2wdfRUdeNDqeOWmnRaamEBDj6OZYHcRn1n7d6j2dPPMG+0hSy43bOcqFHsebw+kek4xFTjfu2kfLZcmwvq7G8ef5uyBw5A292zq9xupkNrd/kQWghCUlYUSdKT5TrqrpjlwJPKMetX8zPYSf2rL5zlPe8XL4wxe3lSLmxnofdhNcqQZNdOcMwPOERS+XFuuJBIP8AV7hCh+h08SlfOrb/AJM7UskFPKP3qlcmySituBeCM3FpaGtfz+gmpm5FMQ9LYjGS8oJfkaAUG0/HvPntQCok7JwkpIdcT1g7VkEgoSfMUDPEfC2YeoHjleH2+SWON5FjN7NTLbyu1KnlMvsICm3lP+4lGyrwkhKvB0QAei966hlXMBII6Ch5EKWI2IPU05enbifBMowfl3jPI6uTY49H5StmksP2MkuqDKIpQVPhwOqIKQSSsk/e+l3Dq0LQtO/KP5omkAhSTtNJHpv9M/B/LTud8iz8OeexSXkTtZiUQXE5LaIMQe0uSlYeCle873k9xOuzQ0PHTbm5da5UA5jOB1oWmkLlRGOlatw/xV6bablvIYeB8fWdJl/HjzLbzkyylOJU3MjK7H2UqkOJcbW2pxO1JBCgfAIB6x3nX1NgrVIV/HpTEIbCjyjIoHz/AFrvE9s/l3H9xZU8q4QuRLYjyO2OtwH+rsA+ySfJI2fGur3wlya6tFlfpC0pMAkZiNp+1cC4+07/ABLU/wAx0V1bKn5UtKVQkkdYjqc777RUzUXI2cY1YzrijyabEn2R7pcpKgXXiTs9yyCTsnZ8+T12q70TT75pDFw0FIR8I6DpgDFcusuINT055dxavKStfxK6nrknO9N1Dy/yvk9kzSWXI98mPLWGnCxJ9tfafB0oDY60t5w3o1g0X2rVHMnIkSMeVb+x4r17UnhbPXjnKrBgwc+cVcHG3H+N8b4uxQY1HcS0s/kPvPL73n3VAbWtWgCdADwAAAPHXANc1i61u7NzdHIwAMAAdAK+muHtCs+HrJNrZAwcknJUT1Jxn0ApWZ9OHHbV9U5AXrtx2ourDIWo7litUZ6fMW4p551n+hav5nEg62EnX66134lcEdwB6Ctx7pMzRfkTh+i5Cr41eL29xn8dall7HpDcR15Kk9pQ4S2oKT9/re/voW3i2ZifnUqbCvKgr/pm4tsOO8R4rvIU+1xrDX25EOFLlEolKbSsIEkICQ6kFZPboAkDewSCf4lwLU4ME1HuklISdhTRI4vxh7PMe5BaTIizsZq5VRAixyhEVMd8tlQLYTvY9pATogAb8H6X71XIUd80XIOYK7ULoOEMUxl/OHqe2yBlOfvyZdmz/iSi0zIfCg49HRrTThCgO4bPwR/tHRKfUrlmPDUBsJmOtJVD6PcHxapj0GMcmcsVFZEBTHhQM2mR2GQVFRCG0KCU7USTofsk9NVeKUZUkE/IUAYSkQCfrTPxz6e8S40zOdn1bk2Y3FzY14rJL99evWJWwlYWhO3dn4kHt8+O5X9z0ty4U6nkIAHkIoktBB5hX//Z;" vertex="1" parent="1">
          <mxGeometry x="330" y="202" width="115.5" height="26.55" as="geometry" />
        </mxCell>
        <mxCell id="riI21SobK9dvhJOpMaJD-2" value="&lt;b&gt;腾讯云IM&lt;/b&gt;&lt;br&gt;即时通信&lt;br&gt;聊天服务" style="text;html=1;strokeColor=none;fillColor=none;align=center;verticalAlign=middle;whiteSpace=wrap;rounded=0;" vertex="1" parent="1">
          <mxGeometry x="351.5" y="239" width="77" height="30" as="geometry" />
        </mxCell>
      </root>
    </mxGraphModel>
  </diagram>
</mxfile>
